<svg width="172" height="201" viewBox="0 0 172 201" fill="none" xmlns="http://www.w3.org/2000/svg">
<path d="M19.1475 28.1814C19.1475 29.1436 18.9426 30.0572 18.5747 30.8801C17.5597 33.1502 15.3035 34.7295 12.6832 34.7295C9.11301 34.7295 6.21884 31.7978 6.21884 28.1814C6.21884 24.5651 9.11301 21.6334 12.6832 21.6334C14.352 21.6334 15.8731 22.274 17.02 23.3256C18.3266 24.5238 19.1475 26.2555 19.1475 28.1814Z" fill="#8C52FF"/>
<path d="M17.02 23.3256C18.3266 24.5238 19.1475 26.2555 19.1475 28.1814C19.1475 29.1436 18.9426 30.0572 18.5747 30.8801C46.6071 23.3656 61.2031 18.5466 84.7726 8.70309C117.433 22.3189 134.719 27.2961 164.554 33.5691L165.863 25.7777C132.374 19.3415 114.854 13.2293 84.7726 0C63.8869 9.4956 49.6622 14.6452 17.02 23.3256Z" fill="#8C52FF"/>
<path d="M101.793 34.4808C101.793 36.6129 100.787 38.507 99.2292 39.7027C98.145 40.535 96.7936 41.0289 95.3283 41.0289C91.7581 41.0289 88.864 38.0972 88.864 34.4808C88.864 30.8644 91.7581 27.9328 95.3283 27.9328C98.1224 27.9328 100.503 29.7285 101.405 32.2429C101.656 32.9411 101.793 33.6948 101.793 34.4808Z" fill="#8C52FF"/>
<path d="M101.405 32.2429C101.656 32.9411 101.793 33.6948 101.793 34.4808C101.793 36.6129 100.787 38.507 99.2292 39.7027C117.507 46.3398 126.196 48.6251 140.169 51.3068C140.907 114.581 120.103 133.291 82.3996 166.188L87.1456 172.321C132.898 135.253 150.166 107.605 147.697 44.9245C130.533 41.7051 120.496 39.1163 101.405 32.2429Z" fill="#8C52FF"/>
<path d="M65.4615 147.041C65.4615 150.657 62.5673 153.589 58.9972 153.589C55.427 153.589 52.5328 150.657 52.5328 147.041C52.5328 146.468 52.6054 145.913 52.7418 145.383C53.4358 142.688 55.7819 140.67 58.6184 140.504C58.7438 140.496 58.87 140.493 58.9972 140.493C62.5673 140.493 65.4615 143.424 65.4615 147.041Z" fill="#8C52FF"/>
<path d="M21.6023 44.8417C19.2932 92.3491 26.944 113.888 52.7418 145.383C53.4358 142.688 55.7819 140.67 58.6184 140.504C35.3987 109.247 27.9847 90.0398 29.294 51.3897C49.4667 46.8049 58.9238 44.0346 72.9896 38.7909L70.2893 31.2482C52.7228 37.9868 42.2414 41.1536 21.6023 44.8417Z" fill="#8C52FF"/>
<path d="M90.9914 194.452C90.9914 198.068 88.0973 201 84.5271 201C80.957 201 78.0628 198.068 78.0628 194.452C78.0628 194.341 78.0656 194.23 78.071 194.12C78.2136 191.224 80.2143 188.823 82.8906 188.116C83.4133 187.977 83.9617 187.904 84.5271 187.904C88.0973 187.904 90.9914 190.836 90.9914 194.452Z" fill="#8C52FF"/>
<path d="M172 56.6944C172 59.0316 170.791 61.0827 168.972 62.2414C167.977 62.8756 166.799 63.2425 165.536 63.2425C163.906 63.2425 162.418 62.6318 161.281 61.624C159.927 60.4238 159.071 58.6603 159.071 56.6944C159.071 53.0781 161.966 50.1464 165.536 50.1464C169.106 50.1464 172 53.0781 172 56.6944Z" fill="#8C52FF"/>
<path d="M165.536 63.2425C163.906 63.2425 162.418 62.6318 161.281 61.624C157.141 102.107 148.034 121.561 124.295 152.677L130.105 157.733C154.397 126.588 164.159 106.524 168.972 62.2414C167.977 62.8756 166.799 63.2425 165.536 63.2425Z" fill="#8C52FF"/>
<path d="M82.8906 188.116C28.3919 142.296 9.5748 111.609 7.9372 43.2668H0C2.53699 118.825 23.8449 149.414 78.071 194.12C78.2136 191.224 80.2143 188.823 82.8906 188.116Z" fill="#8C52FF"/>
<path fill-rule="evenodd" clip-rule="evenodd" d="M84.7726 47.9085C68.5009 55.0736 58.9635 58.0047 41.4044 61.6676C40.4213 103.519 49.3564 123.252 84.7726 150.854C117.502 124.448 129.236 106.129 128.141 61.7505C111.276 58.3061 101.789 55.5108 84.7726 47.9085ZM85.509 121.429C101.145 121.429 113.821 108.589 113.821 92.7501C113.821 76.9113 101.145 64.0713 85.509 64.0713C69.8727 64.0713 57.197 76.9113 57.197 92.7501C57.197 108.589 69.8727 121.429 85.509 121.429Z" fill="#8C52FF"/>
<path d="M84.118 67.3868V77.0845H73.3987C76.1464 71.0824 78.589 69.0475 84.118 67.3868Z" fill="#8C52FF"/>
<path d="M87.1456 67.3868V77.0845H97.8649C95.1172 71.0824 92.6746 69.0475 87.1456 67.3868Z" fill="#8C52FF"/>
<path d="M84.118 118.113V108.416H73.3987C76.1464 114.418 78.589 116.453 84.118 118.113Z" fill="#8C52FF"/>
<path d="M87.1456 118.113V108.416H97.8649C95.1172 114.418 92.6746 116.453 87.1456 118.113Z" fill="#8C52FF"/>
<path d="M69.8801 77.0845C71.0573 74.2626 72.0558 72.7522 74.1351 70.1221C70.4123 72.0916 68.5306 73.5137 65.8706 77.0845H69.8801Z" fill="#8C52FF"/>
<path d="M101.302 77.0845C100.124 74.2626 99.1259 72.7522 97.0466 70.1221C100.769 72.0916 102.651 73.5137 105.311 77.0845H101.302Z" fill="#8C52FF"/>
<path d="M69.8801 108.416C71.0573 111.238 72.0558 112.748 74.1351 115.378C70.4123 113.409 68.5306 111.987 65.8706 108.416H69.8801Z" fill="#8C52FF"/>
<path d="M101.302 108.416C100.124 111.238 99.1259 112.748 97.0466 115.378C100.769 113.409 102.651 111.987 105.311 108.416H101.302Z" fill="#8C52FF"/>
<path d="M63.9068 79.8198H68.8982C67.3593 84.2267 67.0608 86.7581 66.8525 91.1753H60.5519C60.9721 86.8485 61.6405 84.3701 63.9068 79.8198Z" fill="#8C52FF"/>
<path d="M71.9258 79.8198C70.3807 84.7468 70.0183 87.171 69.8801 91.1753H84.118V79.8198H71.9258Z" fill="#8C52FF"/>
<path d="M107.357 79.8198H102.365C103.904 84.2267 104.203 86.7581 104.411 91.1753H110.712C110.291 86.8485 109.623 84.3701 107.357 79.8198Z" fill="#8C52FF"/>
<path d="M99.3378 79.8198C100.883 84.7468 101.245 87.171 101.383 91.1753H87.1456V79.8198H99.3378Z" fill="#8C52FF"/>
<path d="M63.9068 105.83H68.8982C67.3593 101.423 67.0608 98.8917 66.8525 94.4746H60.5519C60.9721 98.8014 61.6405 101.28 63.9068 105.83Z" fill="#8C52FF"/>
<path d="M71.9258 105.83C70.3807 100.903 70.0183 98.4788 69.8801 94.4746H84.118V105.83H71.9258Z" fill="#8C52FF"/>
<path d="M107.357 105.83H102.365C103.904 101.423 104.203 98.8917 104.411 94.4746H110.712C110.291 98.8014 109.623 101.28 107.357 105.83Z" fill="#8C52FF"/>
<path d="M99.3378 105.83C100.883 100.903 101.245 98.4788 101.383 94.4746H87.1456V105.83H99.3378Z" fill="#8C52FF"/>
</svg>
